# xmcd CD database file
#
# Track frame offsets:
#	150
#	13860
#	29357
#	45660
#	60120
#	75667
#	93020
#	109422
#
# Disc length: 1646 seconds
#
# Revision: 0
# Processed by: cddbd v1.5.1PL2 Copyright (c) Steve Scherf et al.
# Submitted via: CDex 1.51
#
DISCID=55066c08
DTITLE=FRANSHESKA - ATRE VETE A MOVERLO
DYEAR=1994
DGENRE=Salsa
TTITLE0=DIME SI TE GUSTA
TTITLE1=ATREVATE A MOVERLO
TTITLE2=GOODBYE
TTITLE3=PASA LA PRUEBA
TTITLE4=ALE BOOM SHAKATA
TTITLE5=DAME TU CARINO
TTITLE6=BAILA CONMIGO
TTITLE7=ATREVETE A MOVERLO
EXTD=YEAR: 1994
EXTT0=
EXTT1=
EXTT2=
EXTT3=
EXTT4=
EXTT5=
EXTT6=
EXTT7=
PLAYORDER=
